<svg xmlns="http://www.w3.org/2000/svg" viewBox="0 0 512 512" width="512" height="512">
  <rect width="512" height="512" rx="96" fill="#c1121f"/>
  <!-- Flamme -->
  <path d="M256 96c20 46-22 64-22 110 0 34 26 54 26 54s-8-30 14-44c0 0 6 26 28 40 18 12 30 34 30 60 0 58-48 92-104 92s-104-40-104-100c0-70 64-92 64-150 0-28-12-46-12-46s40 8 56 40c12-44 0-78-4-110z" fill="#ffd23f"/>
  <!-- Thermometer -->
  <g>
    <rect x="232" y="150" width="22" height="180" rx="11" fill="#fff"/>
    <circle cx="243" cy="350" r="34" fill="#fff"/>
    <rect x="237" y="200" width="12" height="150" rx="6" fill="#c1121f"/>
    <circle cx="243" cy="350" r="22" fill="#c1121f"/>
  </g>
</svg>
